<?xml version="1.0" encoding="utf-8"?>
<!-- Generator: Adobe Illustrator 16.0.0, SVG Export Plug-In . SVG Version: 6.00 Build 0)  -->
<!DOCTYPE svg PUBLIC "-//W3C//DTD SVG 1.1//EN" "http://www.w3.org/Graphics/SVG/1.1/DTD/svg11.dtd">
<svg version="1.1" id="Layer_1" xmlns="http://www.w3.org/2000/svg" xmlns:xlink="http://www.w3.org/1999/xlink" x="0px" y="0px"
	 width="28px" height="28px" viewBox="0 0 28 28" enable-background="new 0 0 28 28" xml:space="preserve">
<path fill="#231F20" d="M24.969,6.125H3.031c-0.553,0-1-0.447-1-1s0.447-1,1-1h21.938c0.553,0,1,0.447,1,1
	S25.521,6.125,24.969,6.125z"/>
<path fill="#231F20" d="M24.969,15H3.031c-0.553,0-1-0.447-1-1s0.447-1,1-1h21.938c0.553,0,1,0.447,1,1S25.521,15,24.969,15z"/>
<path fill="#231F20" d="M24.969,23.875H3.031c-0.553,0-1-0.447-1-1s0.447-1,1-1h21.938c0.553,0,1,0.447,1,1
	S25.521,23.875,24.969,23.875z"/>
</svg>
