<?xml version="1.0" encoding="utf-8"?>
<!-- Generator: Adobe Illustrator 16.0.0, SVG Export Plug-In . SVG Version: 6.00 Build 0)  -->
<!DOCTYPE svg PUBLIC "-//W3C//DTD SVG 1.1//EN" "http://www.w3.org/Graphics/SVG/1.1/DTD/svg11.dtd">
<svg version="1.1" id="Layer_1" xmlns="http://www.w3.org/2000/svg" xmlns:xlink="http://www.w3.org/1999/xlink" x="0px" y="0px"
	 width="28px" height="28px" viewBox="0 0 28 28" enable-background="new 0 0 28 28" xml:space="preserve">
<polyline fill="none" stroke="#231F20" stroke-width="2" stroke-linecap="round" stroke-linejoin="round" stroke-miterlimit="10" points="
	18.522,-36.175 7.859,-46.838 18.522,-57.5 "/>
<path fill="#231F20" d="M49.486-35.376c-0.256,0-0.512-0.098-0.707-0.293L38.317-46.131c-0.188-0.188-0.293-0.442-0.293-0.707
	s0.105-0.52,0.293-0.707l10.462-10.461c0.391-0.391,1.023-0.391,1.414,0s0.391,1.023,0,1.414l-9.755,9.754l9.755,9.755
	c0.391,0.391,0.391,1.023,0,1.414C49.998-35.474,49.742-35.376,49.486-35.376z"/>
<line fill="none" stroke="#231F20" stroke-width="2" stroke-linecap="round" stroke-linejoin="round" stroke-miterlimit="10" x1="2.531" y1="-24.813" x2="25.469" y2="-24.813"/>
<line fill="none" stroke="#231F20" stroke-width="2" stroke-linecap="round" stroke-linejoin="round" stroke-miterlimit="10" x1="2.531" y1="-15.938" x2="25.469" y2="-15.938"/>
<line fill="none" stroke="#231F20" stroke-width="2" stroke-linecap="round" stroke-linejoin="round" stroke-miterlimit="10" x1="2.531" y1="-7.063" x2="25.469" y2="-7.063"/>
<line fill="none" stroke="#949EAD" stroke-width="2" stroke-linecap="round" stroke-linejoin="round" stroke-miterlimit="10" x1="3.984" y1="3.985" x2="24.017" y2="24.015"/>
<line fill="none" stroke="#949EAD" stroke-width="2" stroke-linecap="round" stroke-linejoin="round" stroke-miterlimit="10" x1="24.017" y1="3.985" x2="3.985" y2="24.015"/>
<path fill="#949EAD" d="M54.934,25.015c-0.256,0-0.512-0.098-0.707-0.293L34.193,4.692c-0.391-0.391-0.391-1.023,0-1.414
	s1.023-0.391,1.414,0l20.033,20.029c0.391,0.391,0.391,1.023,0,1.414C55.445,24.917,55.189,25.015,54.934,25.015z"/>
<path fill="#949EAD" d="M34.901,25.015c-0.256,0-0.512-0.098-0.707-0.293c-0.391-0.391-0.391-1.023,0-1.414L54.227,3.278
	c0.391-0.391,1.023-0.391,1.414,0s0.391,1.023,0,1.414L35.608,24.722C35.413,24.917,35.157,25.015,34.901,25.015z"/>
<path fill="#231F20" d="M55.531-23.813H33.594c-0.553,0-1-0.447-1-1s0.447-1,1-1h21.938c0.553,0,1,0.447,1,1
	S56.084-23.813,55.531-23.813z"/>
<path fill="#231F20" d="M55.531-14.938H33.594c-0.553,0-1-0.447-1-1s0.447-1,1-1h21.938c0.553,0,1,0.447,1,1
	S56.084-14.938,55.531-14.938z"/>
<path fill="#231F20" d="M55.531-6.063H33.594c-0.553,0-1-0.447-1-1s0.447-1,1-1h21.938c0.553,0,1,0.447,1,1
	S56.084-6.063,55.531-6.063z"/>
</svg>
