<?xml version="1.0" encoding="utf-8"?>
<!-- Generator: Adobe Illustrator 16.0.0, SVG Export Plug-In . SVG Version: 6.00 Build 0)  -->
<!DOCTYPE svg PUBLIC "-//W3C//DTD SVG 1.1//EN" "http://www.w3.org/Graphics/SVG/1.1/DTD/svg11.dtd">
<svg version="1.1" id="Layer_1" xmlns="http://www.w3.org/2000/svg" xmlns:xlink="http://www.w3.org/1999/xlink" x="0px" y="0px"
	 width="28px" height="28px" viewBox="0 0 28 28" enable-background="new 0 0 28 28" xml:space="preserve">
<polyline fill="none" stroke="#231F20" stroke-width="3" stroke-linecap="round" stroke-linejoin="round" stroke-miterlimit="10" points="
	-12.04,26.013 -23.891,14.162 -12.04,2.313 "/>
<path fill="#231F20" d="M18.924,25.624c-0.256,0-0.512-0.098-0.707-0.293L7.755,14.869c-0.188-0.188-0.293-0.442-0.293-0.707
	s0.105-0.52,0.293-0.707L18.217,2.994c0.391-0.391,1.023-0.391,1.414,0s0.391,1.023,0,1.414l-9.755,9.754l9.755,9.755
	c0.391,0.391,0.391,1.023,0,1.414C19.436,25.526,19.18,25.624,18.924,25.624z"/>
<line fill="none" stroke="#231F20" stroke-width="3" stroke-linecap="round" stroke-linejoin="round" stroke-miterlimit="10" x1="-28.031" y1="34.188" x2="-5.094" y2="34.188"/>
<line fill="none" stroke="#231F20" stroke-width="3" stroke-linecap="round" stroke-linejoin="round" stroke-miterlimit="10" x1="-28.031" y1="45.063" x2="-5.094" y2="45.063"/>
<line fill="none" stroke="#231F20" stroke-width="3" stroke-linecap="round" stroke-linejoin="round" stroke-miterlimit="10" x1="-28.031" y1="55.938" x2="-5.094" y2="55.938"/>
<path fill="#231F20" d="M24.969,37.188H3.031c-0.553,0-1-0.447-1-1s0.447-1,1-1h21.938c0.553,0,1,0.447,1,1
	S25.521,37.188,24.969,37.188z"/>
<path fill="#231F20" d="M24.969,46.063H3.031c-0.553,0-1-0.447-1-1s0.447-1,1-1h21.938c0.553,0,1,0.447,1,1
	S25.521,46.063,24.969,46.063z"/>
<path fill="#231F20" d="M24.969,54.938H3.031c-0.553,0-1-0.447-1-1s0.447-1,1-1h21.938c0.553,0,1,0.447,1,1
	S25.521,54.938,24.969,54.938z"/>
</svg>
